<?xml version="1.0" standalone="no"?>
<!DOCTYPE svg PUBLIC "-//W3C//DTD SVG 20010904//EN"
 "http://www.w3.org/TR/2001/REC-SVG-20010904/DTD/svg10.dtd">
<svg version="1.0" xmlns="http://www.w3.org/2000/svg"
 width="1024.000000pt" height="1024.000000pt" viewBox="0 0 1024.000000 1024.000000"
 preserveAspectRatio="xMidYMid meet">

<g transform="translate(0.000000,1024.000000) scale(0.100000,-0.100000)"
fill="#000000" stroke="none">
<path d="M7906 10127 l-45 -42 2 -160 2 -160 57 -86 c30 -47 62 -92 71 -100 8
-8 22 -29 31 -47 29 -56 46 -42 108 86 31 64 59 131 62 147 2 17 1 69 -3 116
-12 128 -76 240 -158 275 -54 23 -79 18 -127 -29z m123 -78 c-14 -8 -29 -3
-29 11 0 4 9 6 21 3 15 -4 17 -8 8 -14z m23 -51 c20 -20 21 -23 5 -26 -9 -2
-15 -8 -11 -13 3 -6 1 -15 -5 -22 -6 -8 -6 -18 -1 -27 13 -21 12 -27 -6 -34
-23 -9 -43 11 -37 34 3 11 9 18 12 15 4 -2 8 2 8 9 0 8 -6 12 -13 9 -17 -6
-29 16 -15 30 6 6 11 19 11 29 0 25 25 23 52 -4z"/>
<path d="M7539 9973 c0 -5 -2 -18 -5 -30 -2 -12 1 -25 6 -28 6 -4 10 9 10 29
0 20 -2 36 -5 36 -3 0 -5 -3 -6 -7z"/>
<path d="M8852 9867 c-15 -36 -15 -44 2 -50 8 -3 18 5 25 19 13 30 14 37 2 29
-5 -3 -11 3 -14 12 -3 14 -6 12 -15 -10z"/>
<path d="M7340 9843 c-30 -6 -57 -29 -76 -65 -19 -36 -18 -51 4 -78 15 -18 40
-27 118 -40 108 -19 169 -16 179 8 4 10 -13 34 -47 70 -48 50 -134 114 -147
111 -4 -1 -17 -4 -31 -6z"/>
<path d="M8690 9691 c-10 -4 -15 -23 -16 -59 -2 -64 14 -65 37 -1 18 47 9 72
-21 60z"/>
<path d="M7434 9356 c-41 -41 -44 -77 -13 -139 55 -108 183 -229 224 -213 35
13 3 233 -43 295 -25 34 -99 91 -119 91 -8 0 -30 -15 -49 -34z m126 -141 c-10
-12 -10 -15 1 -15 10 -1 9 -4 -3 -14 -11 -8 -18 -26 -18 -45 0 -34 -6 -37 -34
-16 -16 12 -17 17 -6 30 7 8 17 12 23 8 6 -3 7 -1 3 5 -11 18 5 64 20 58 8 -3
14 0 14 6 0 6 3 8 6 5 4 -4 1 -13 -6 -22z"/>
<path d="M6735 9370 c-3 -5 3 -10 14 -10 12 0 21 5 21 10 0 6 -6 10 -14 10 -8
0 -18 -4 -21 -10z"/>
<path d="M8060 9370 c0 -5 9 -9 20 -7 31 5 36 17 7 17 -15 0 -27 -4 -27 -10z"/>
<path d="M6795 9360 c3 -5 8 -10 11 -10 2 0 4 5 4 10 0 6 -5 10 -11 10 -5 0
-7 -4 -4 -10z"/>
<path d="M6859 9313 c-11 -3 -15 -12 -11 -28 2 -14 9 -22 14 -19 13 8 88 -26
88 -40 0 -6 11 1 25 16 14 15 25 29 25 31 0 2 -11 2 -25 -1 -14 -2 -25 -8 -25
-14 0 -5 -6 -3 -14 4 -8 7 -12 17 -9 21 6 9 -27 37 -42 36 -5 -1 -17 -3 -26
-6z"/>
<path d="M7015 9300 c-4 -6 -1 -17 5 -25 10 -12 9 -16 -4 -21 -9 -3 -13 -10
-10 -15 3 -5 -2 -9 -12 -9 -11 0 -15 -6 -11 -19 3 -13 0 -18 -8 -15 -7 3 -16
0 -21 -7 -4 -8 -3 -10 4 -5 19 12 14 -9 -9 -33 -12 -12 -18 -25 -15 -28 8 -9
-14 -33 -30 -33 -8 0 -13 9 -11 22 1 16 -6 26 -28 37 -16 8 -34 20 -38 28 -4
7 -18 13 -29 13 -20 0 -19 -3 11 -34 24 -24 29 -36 20 -41 -9 -6 -5 -14 16
-30 l27 -23 -28 4 c-29 4 -28 4 5 -11 31 -15 34 -15 47 2 11 15 13 16 14 2 0
-19 41 -39 81 -39 16 0 72 -7 125 -15 52 -9 100 -13 106 -9 6 4 24 7 39 6 34
-1 39 22 9 38 -14 7 -20 7 -20 0 0 -5 5 -10 10 -10 6 0 10 -4 10 -9 0 -5 -9
-7 -20 -4 -16 4 -18 9 -9 25 9 17 6 26 -19 52 -16 17 -46 54 -66 81 -45 61
-115 135 -126 135 -5 0 -12 -5 -15 -10z m73 -106 c15 9 22 -20 9 -35 -10 -11
-9 -11 5 0 10 7 14 19 11 29 -4 9 8 2 25 -15 39 -40 40 -53 5 -50 -24 2 -28
-2 -30 -27 -2 -31 -20 -47 -66 -57 -23 -6 -25 -4 -16 8 10 11 8 12 -15 4 -27
-11 -34 -3 -15 16 8 8 8 13 0 17 -6 4 -11 2 -11 -3 0 -6 -9 -3 -20 6 -11 9
-16 20 -11 23 5 3 10 14 12 24 5 23 91 77 100 63 4 -5 11 -7 17 -3z m104 -121
c-6 -3 -10 -9 -6 -14 3 -5 0 -9 -5 -9 -6 0 -11 5 -11 11 0 5 -4 8 -8 5 -4 -2
-14 -1 -21 4 -20 12 -3 32 21 24 15 -5 19 -3 13 7 -4 8 1 6 11 -5 14 -13 15
-20 6 -23z"/>
<path d="M8272 9240 c-1 -14 -11 -40 -22 -58 -20 -32 -23 -33 -63 -27 l-42 7
23 -20 c28 -25 28 -27 -9 -42 -20 -9 -27 -16 -20 -23 6 -6 25 4 56 28 65 54
87 88 82 127 -3 25 -4 27 -5 8z"/>
<path d="M8137 9133 c-10 -9 -9 -33 1 -33 4 0 8 9 9 20 2 21 0 24 -10 13z"/>
<path d="M9675 8870 c-3 -5 1 -10 9 -10 9 0 16 5 16 10 0 6 -4 10 -9 10 -6 0
-13 -4 -16 -10z"/>
<path d="M7493 8853 c15 -2 37 -2 50 0 12 2 0 4 -28 4 -27 0 -38 -2 -22 -4z"/>
<path d="M7576 8847 c2 -7 19 -18 37 -25 17 -7 40 -18 49 -23 22 -11 28 -11
28 0 0 5 -12 14 -27 20 -16 6 -42 18 -60 26 -24 11 -31 11 -27 2z"/>
<path d="M7342 8828 c-42 -30 -48 -52 -27 -98 14 -32 26 -41 66 -54 50 -17
149 -22 149 -8 0 4 -22 7 -49 6 -38 -2 -49 1 -45 11 3 7 -3 18 -14 24 -17 9
-19 19 -16 63 4 55 -6 55 -25 -1 -9 -27 -8 -36 1 -43 9 -5 9 -8 1 -8 -6 0 -20
-3 -30 -6 -15 -5 -15 -4 -3 5 13 9 11 11 -7 11 -30 0 -39 34 -18 66 9 14 22
23 30 20 7 -2 15 4 18 15 6 23 8 24 -31 -3z"/>
<path d="M7340 8780 c0 -11 2 -20 4 -20 2 0 6 9 9 20 3 11 1 20 -4 20 -5 0 -9
-9 -9 -20z"/>
<path d="M7516 8755 c-3 -10 1 -15 12 -15 13 0 14 -2 3 -9 -13 -9 -10 -13 22
-24 10 -4 16 -3 15 1 -32 66 -41 74 -52 47z"/>
<path d="M7658 8729 c-30 -33 -29 -35 12 -14 19 10 27 20 24 30 -4 8 -7 14 -8
14 0 -1 -13 -14 -28 -30z"/>
<path d="M7570 8688 c-19 -6 -30 -12 -24 -15 7 -2 27 3 45 11 39 17 29 19 -21
4z"/>
<path d="M8220 8650 c-8 -5 -11 -12 -7 -16 4 -4 13 -2 19 4 15 15 7 24 -12 12z"/>
<path d="M9488 8653 c7 -3 16 -2 19 1 4 3 -2 6 -13 5 -11 0 -14 -3 -6 -6z"/>
<path d="M9965 8551 c-3 -5 -1 -12 5 -16 5 -3 10 1 10 9 0 18 -6 21 -15 7z"/>
<path d="M7890 8501 c0 -6 4 -13 10 -16 6 -3 7 1 4 9 -7 18 -14 21 -14 7z"/>
<path d="M8062 8460 c0 -14 2 -19 5 -12 2 6 2 18 0 25 -3 6 -5 1 -5 -13z"/>
<path d="M7975 8446 l-29 -23 27 0 c15 0 24 4 21 9 -3 5 0 15 6 23 18 21 9 18
-25 -9z"/>
<path d="M7972 8379 c-1 -31 12 -39 22 -13 3 8 0 22 -8 29 -11 11 -13 9 -14
-16z"/>
<path d="M8536 7842 c-3 -5 -10 -22 -16 -38 l-11 -29 27 28 c18 19 23 32 16
39 -6 6 -12 6 -16 0z"/>
<path d="M4772 7086 c-199 -49 -418 -258 -616 -590 -100 -167 -170 -314 -356
-744 -29 -67 -59 -127 -67 -133 -8 -7 -71 -14 -158 -17 -124 -4 -157 -2 -238
17 -252 58 -406 250 -383 478 10 95 40 181 92 258 58 87 102 135 179 189 132
95 249 134 425 144 102 6 115 9 118 26 6 30 -16 36 -138 36 -576 -1 -996 -483
-784 -902 64 -128 233 -245 422 -295 85 -22 118 -25 264 -26 164 0 166 -1 158
-21 -52 -134 -225 -479 -283 -566 -17 -25 -31 -46 -31 -47 -1 -1 -32 9 -69 22
-200 73 -473 90 -659 42 -215 -56 -390 -190 -444 -339 -23 -64 -21 -164 6
-226 56 -130 228 -199 429 -173 228 29 425 134 644 340 l87 84 191 -97 c303
-154 493 -224 652 -241 124 -13 258 43 356 151 66 72 113 168 109 220 -4 54
-29 56 -52 4 -27 -61 -60 -95 -118 -120 -110 -48 -256 -36 -453 35 -106 38
-495 212 -512 229 -9 8 7 40 71 136 88 132 232 394 287 520 18 41 39 82 48 91
9 9 52 28 96 43 97 33 244 102 326 152 33 20 62 34 64 32 2 -2 -1 -24 -6 -48
-18 -76 -6 -246 21 -310 51 -118 111 -186 207 -232 73 -35 148 -37 148 -4 0
12 -14 24 -43 35 -55 22 -107 71 -139 135 -37 72 -43 200 -15 312 100 395 456
763 887 916 63 23 236 67 324 82 33 6 33 6 -37 -68 -271 -285 -502 -684 -742
-1281 -27 -66 -117 -282 -200 -480 -83 -198 -170 -405 -192 -461 -38 -96 -42
-102 -91 -131 -196 -117 -519 -398 -630 -548 -194 -262 -217 -517 -52 -581
140 -53 329 51 489 268 137 187 342 577 493 938 7 17 45 44 119 86 80 45 110
66 112 82 5 36 -22 35 -98 -3 -40 -20 -73 -35 -75 -33 -2 2 24 66 56 143 33
77 121 293 195 480 296 743 312 781 435 1027 132 264 232 418 342 526 52 51
57 54 127 63 89 11 158 42 166 74 8 34 -3 60 -32 73 -51 24 -116 8 -212 -51
-45 -27 -72 -36 -127 -41 -231 -22 -498 -89 -679 -170 -33 -14 -61 -24 -63
-22 -2 2 5 39 17 82 24 93 26 219 5 290 -37 127 -190 184 -373 140z m226 -106
c68 -41 81 -157 36 -302 -52 -165 -73 -197 -187 -287 -142 -112 -250 -237
-315 -366 -25 -50 -43 -70 -106 -115 -115 -83 -406 -233 -421 -218 -7 7 36
106 168 388 106 228 141 295 221 430 217 367 462 557 604 470z m-2013 -2195
c90 -24 249 -76 259 -85 4 -5 -34 -50 -85 -102 -236 -235 -520 -351 -716 -293
-110 33 -163 93 -163 187 0 75 20 119 85 184 54 54 136 93 249 119 78 18 287
12 371 -10z m1490 -792 c-169 -374 -351 -671 -455 -739 -52 -35 -106 -36 -132
-4 -17 21 -20 36 -16 100 8 141 118 323 309 511 93 92 347 294 357 285 2 -3
-26 -71 -63 -153z"/>
<path d="M465 6070 c10 -11 20 -20 23 -20 3 0 -3 9 -13 20 -10 11 -20 20 -23
20 -3 0 3 -9 13 -20z"/>
<path d="M9900 5907 c0 -21 20 -33 29 -18 4 6 15 9 23 6 9 -4 19 -2 23 4 4 7
-4 11 -19 11 -13 0 -31 3 -40 6 -10 4 -16 1 -16 -9z"/>
<path d="M9713 5884 c82 -96 197 -187 214 -170 3 3 -7 10 -22 16 -30 11 -36
16 -125 101 -43 41 -51 54 -37 57 30 6 18 22 -18 22 l-35 0 23 -26z"/>
<path d="M9798 5903 c12 -2 32 -2 45 0 12 2 2 4 -23 4 -25 0 -35 -2 -22 -4z"/>
<path d="M10033 5888 c18 -6 26 -15 23 -24 -5 -12 5 -18 26 -15 11 1 58 -67
58 -85 0 -10 -7 -26 -17 -36 -9 -10 -11 -18 -6 -18 38 0 46 83 13 130 -21 30
-77 60 -107 59 -12 0 -9 -4 10 -11z"/>
<path d="M10060 5820 c0 -5 7 -10 15 -10 8 0 15 5 15 10 0 6 -7 10 -15 10 -8
0 -15 -4 -15 -10z"/>
<path d="M9917 5813 c-10 -9 -9 -23 1 -23 5 0 9 7 9 15 0 17 -1 18 -10 8z"/>
<path d="M571 5784 c0 -11 3 -14 6 -6 3 7 2 16 -1 19 -3 4 -6 -2 -5 -13z"/>
<path d="M7776 5748 c-66 -12 -167 -59 -224 -104 -68 -54 -117 -117 -165 -213
-40 -81 -42 -88 -42 -177 l0 -92 93 -185 c102 -204 121 -269 102 -344 -14 -57
-47 -110 -96 -152 -52 -47 -96 -62 -171 -62 -92 0 -166 37 -210 106 -18 28
-41 61 -51 75 -19 24 -21 24 -40 7 -42 -38 -54 -155 -23 -223 24 -52 60 -80
130 -100 183 -54 428 70 578 291 88 130 96 307 21 454 -13 25 -50 97 -82 160
-61 119 -77 186 -62 266 9 44 71 116 122 140 46 21 143 21 185 0 30 -16 31
-18 26 -68 -3 -29 -9 -64 -12 -79 -6 -21 -3 -27 14 -33 41 -13 55 4 110 122
71 155 76 170 62 187 -25 30 -166 43 -265 24z"/>
<path d="M10020 5739 c0 -24 23 -21 28 4 2 10 -3 17 -12 17 -10 0 -16 -9 -16
-21z"/>
<path d="M914 5703 c-4 -27 -15 -73 -26 -103 -50 -147 -58 -176 -58 -224 0
-28 7 -64 15 -80 8 -15 15 -35 15 -43 0 -8 9 -35 20 -61 60 -139 67 -135 69
40 1 79 8 208 17 287 l15 145 -23 43 c-13 24 -26 43 -30 43 -4 0 -10 -21 -14
-47z m-49 -403 c3 -5 1 -10 -4 -10 -6 0 -11 5 -11 10 0 6 2 10 4 10 3 0 8 -4
11 -10z"/>
<path d="M6210 5700 c-343 -43 -731 -412 -868 -825 -99 -299 -48 -550 120
-596 25 -7 79 -9 130 -6 77 4 99 10 175 46 138 66 275 177 391 315 101 120
122 156 129 217 5 56 -15 129 -36 129 -6 0 -32 -41 -57 -92 -151 -301 -360
-482 -535 -466 -100 10 -149 80 -149 214 0 141 37 276 124 454 74 150 137 242
230 335 101 101 165 136 257 143 62 4 69 3 93 -21 33 -33 35 -93 4 -156 -59
-122 -225 -210 -428 -228 -77 -7 -85 -10 -88 -30 -5 -31 43 -53 114 -53 209 0
528 196 610 375 28 61 35 146 16 182 -27 50 -126 76 -232 63z"/>
<path d="M9948 5703 c6 -2 18 -2 25 0 6 3 1 5 -13 5 -14 0 -19 -2 -12 -5z"/>
<path d="M9995 5700 c-3 -5 -1 -10 4 -10 6 0 11 5 11 10 0 6 -2 10 -4 10 -3 0
-8 -4 -11 -10z"/>
<path d="M10055 5700 l-30 -8 32 -1 c17 0 35 4 38 9 7 11 3 11 -40 0z"/>
<path d="M440 5645 c13 -14 26 -25 28 -25 3 0 -5 11 -18 25 -13 14 -26 25 -28
25 -3 0 5 -11 18 -25z"/>
<path d="M9725 5617 c-12 -19 -19 -64 -26 -162 -8 -128 -7 -138 12 -181 12
-24 34 -54 50 -65 25 -18 34 -19 62 -10 52 18 77 46 77 89 -1 47 -14 105 -41
178 -16 42 -24 53 -31 43 -8 -11 -8 -10 -4 4 7 23 -14 64 -52 101 l-30 28 -17
-25z m127 -177 c2 -19 8 -38 13 -42 13 -10 13 -31 0 -41 -7 -6 -6 -10 3 -14 6
-2 12 -9 12 -15 0 -7 -5 -7 -13 1 -8 6 -24 12 -37 14 -40 6 -46 29 -22 79 12
24 22 51 22 58 0 28 18 -6 22 -40z"/>
<path d="M552 5580 c0 -14 2 -19 5 -12 2 6 2 18 0 25 -3 6 -5 1 -5 -13z"/>
<path d="M286 5558 c-59 -33 -85 -109 -48 -139 9 -8 42 -23 72 -33 30 -11 61
-24 69 -30 7 -6 40 -13 72 -16 52 -5 58 -4 63 15 8 28 -52 121 -106 166 -47
40 -93 53 -122 37z"/>
<path d="M10123 5498 c5 -16 -17 -34 -36 -29 -5 1 -7 -2 -5 -6 48 -97 70 -157
74 -198 4 -52 24 -87 62 -113 22 -14 22 -14 21 44 0 41 -3 53 -9 39 -6 -16 -9
-17 -13 -5 -11 29 -11 45 1 67 11 20 10 22 -4 16 -12 -4 -15 -3 -10 5 4 7 3
12 -3 12 -5 0 -12 -8 -14 -17 -3 -10 -3 0 -2 22 2 21 -1 45 -7 52 -7 9 -7 18
3 31 13 16 13 16 -6 2 -11 -8 -25 -21 -31 -29 -9 -11 -12 -10 -19 10 -15 45
-13 57 6 52 11 -3 19 -1 19 4 0 14 61 14 77 1 9 -7 13 -7 13 0 0 16 -34 32
-67 32 -16 0 -35 6 -42 13 -11 10 -13 9 -8 -5z"/>
<path d="M601 5206 c7 -15 15 -23 17 -16 3 7 -3 19 -13 28 -15 16 -16 15 -4
-12z"/>
<path d="M325 5076 c-55 -24 -68 -49 -62 -113 5 -52 39 -143 53 -143 3 0 2 5
-2 12 -4 6 3 4 16 -5 25 -17 35 -57 17 -68 -6 -4 1 -21 17 -42 30 -39 59 -57
49 -30 -4 11 -2 14 5 9 7 -4 12 -14 12 -22 0 -17 26 -19 37 -1 4 6 7 76 5 155
-1 128 -4 148 -24 183 -12 22 -36 49 -54 59 -37 23 -31 23 -69 6z m25 -161 c0
-8 5 -15 12 -15 6 0 3 -9 -7 -20 -16 -18 -16 -20 -2 -20 10 0 17 -5 17 -11 0
-7 -7 -8 -17 -4 -10 4 -26 7 -35 7 -10 0 -18 4 -18 9 0 6 5 7 10 4 6 -3 11 0
11 7 1 7 2 18 4 23 1 6 3 16 3 23 3 17 22 15 22 -3z m40 5 c0 -5 -7 -10 -15
-10 -8 0 -15 5 -15 10 0 6 7 10 15 10 8 0 15 -4 15 -10z"/>
<path d="M0 4931 c0 -30 4 -40 19 -44 18 -4 18 -3 4 39 -8 24 -17 44 -19 44
-2 0 -4 -17 -4 -39z"/>
<path d="M9628 4963 c-40 -10 -8 -114 56 -181 39 -42 76 -62 114 -62 34 0 82
34 82 59 0 9 5 22 11 28 26 26 -3 54 -104 103 -111 52 -133 60 -159 53z"/>
<path d="M10000 4924 c0 -8 5 -12 10 -9 6 3 10 10 10 16 0 5 -4 9 -10 9 -5 0
-10 -7 -10 -16z"/>
<path d="M56 4795 c7 -18 -9 -19 -38 -4 -17 9 -19 8 -16 -7 2 -11 16 -21 33
-25 17 -4 37 -9 45 -13 12 -5 15 0 15 17 -2 30 -13 47 -30 47 -9 0 -12 -6 -9
-15z"/>
<path d="M9610 4686 c0 -2 8 -10 18 -17 15 -13 16 -12 3 4 -13 16 -21 21 -21
13z"/>
<path d="M9670 4625 c13 -14 26 -25 28 -25 3 0 -5 11 -18 25 -13 14 -26 25
-28 25 -3 0 5 -11 18 -25z"/>
<path d="M120 4570 c-96 -23 -92 -133 6 -183 37 -18 124 -30 124 -17 0 6 -18
10 -40 10 -35 0 -42 4 -51 27 -5 14 -10 41 -11 58 -1 29 -2 31 -18 16 -10 -10
-12 -19 -6 -23 6 -4 -4 -6 -22 -6 -33 1 -36 5 -32 48 3 36 28 60 64 61 17 1
42 5 56 9 24 8 24 8 -5 8 -16 0 -46 -4 -65 -8z"/>
<path d="M260 4556 c37 -14 54 -11 30 4 -8 6 -26 9 -40 9 -22 0 -21 -2 10 -13z"/>
<path d="M6522 4543 c-98 -48 -121 -193 -39 -243 90 -55 204 9 215 120 10 107
-80 171 -176 123z"/>
<path d="M322 4538 c3 -7 13 -17 24 -23 11 -5 35 -20 54 -33 34 -23 34 -23 -5
13 -49 45 -79 63 -73 43z"/>
<path d="M286 4514 c-3 -8 1 -14 9 -14 20 0 28 17 11 23 -8 3 -17 -1 -20 -9z"/>
<path d="M278 4396 c-21 -29 -15 -36 30 -36 35 0 35 0 16 21 -10 12 -18 24
-16 27 10 18 -15 8 -30 -12z"/>
<path d="M393 4373 c9 -2 25 -2 35 0 9 3 1 5 -18 5 -19 0 -27 -2 -17 -5z"/>
<path d="M9540 4220 c-21 -21 -26 -40 -12 -40 5 0 19 11 31 24 28 30 10 45
-19 16z"/>
<path d="M9570 4180 c-13 -8 -12 -10 3 -10 9 0 17 5 17 10 0 12 -1 12 -20 0z"/>
<path d="M400 3840 c0 -5 5 -10 11 -10 5 0 7 5 4 10 -3 6 -8 10 -11 10 -2 0
-4 -4 -4 -10z"/>
<path d="M370 1752 c0 -4 9 -8 20 -9 11 -1 20 2 20 8 0 5 -9 9 -20 9 -11 0
-20 -4 -20 -8z"/>
<path d="M2170 1757 c0 -19 32 -67 45 -67 17 0 18 6 5 35 -6 14 -9 15 -10 5 0
-10 -6 -7 -20 10 -11 14 -20 21 -20 17z"/>
<path d="M886 1669 c2 -4 -4 -10 -13 -13 -10 -3 7 -3 37 0 71 7 85 20 21 20
-28 0 -48 -3 -45 -7z"/>
<path d="M681 1657 c-9 -12 -5 -14 29 -13 22 0 40 4 40 8 0 5 -6 8 -14 8 -8 0
-21 2 -29 5 -7 3 -19 0 -26 -8z"/>
<path d="M778 1653 c7 -3 16 -2 19 1 4 3 -2 6 -13 5 -11 0 -14 -3 -6 -6z"/>
<path d="M1354 1615 c-4 -8 -3 -22 0 -30 3 -9 -1 -18 -9 -21 -22 -9 -18 -33 5
-31 11 1 20 7 20 14 0 15 16 17 25 3 3 -5 10 -10 15 -10 14 0 20 31 9 48 -9
14 -10 15 -6 1 3 -9 1 -22 -4 -30 -7 -11 -9 -9 -9 7 0 11 -5 25 -12 32 -9 9
-7 12 10 12 12 0 22 5 22 10 0 16 -60 12 -66 -5z"/>
<path d="M2010 1527 c0 -8 6 -20 14 -26 12 -10 13 -8 9 9 -7 25 -23 37 -23 17z"/>
<path d="M2807 1452 c-30 -33 -20 -133 15 -149 22 -9 37 -73 18 -73 -19 0 -9
-17 45 -77 46 -51 62 -62 98 -68 23 -4 48 -12 55 -17 21 -18 13 0 -13 28 -28
31 -29 52 -2 65 9 5 25 13 35 18 32 15 25 47 -22 103 -25 29 -60 70 -78 91
-32 38 -108 97 -126 97 -5 0 -16 -8 -25 -18z m123 -161 c0 -5 -4 -11 -10 -13
-9 -3 -17 -33 -19 -66 -1 -7 -6 -10 -11 -7 -6 4 -8 14 -6 23 3 10 2 23 -3 31
-6 9 -5 19 2 27 14 15 47 19 47 5z m50 -27 c0 -2 -7 -4 -15 -4 -8 0 -15 4 -15
10 0 5 7 7 15 4 8 -4 15 -8 15 -10z"/>
<path d="M1300 1429 c-7 -11 -10 -23 -7 -25 2 -2 9 7 15 21 14 30 7 33 -8 4z"/>
<path d="M2251 1348 c-64 -72 -76 -114 -55 -191 22 -81 37 -97 19 -21 -8 32
-14 73 -15 89 0 28 39 100 64 117 17 11 27 9 25 -4 -4 -37 2 -240 8 -235 8 9
13 272 4 285 -3 5 -26 -13 -50 -40z"/>
<path d="M3280 1360 c0 -9 31 -30 44 -30 16 0 3 18 -19 28 -14 7 -25 8 -25 2z"/>
<path d="M3353 1310 c-2 -23 1 -25 50 -34 49 -9 51 14 2 37 -45 22 -50 21 -52
-3z"/>
<path d="M3500 1260 c12 -7 11 -13 -10 -37 -14 -15 -26 -30 -28 -32 -1 -3 -7
0 -13 6 -6 6 -6 19 1 39 10 29 10 29 -8 8 -10 -11 -24 -23 -32 -26 -11 -3 -8
-8 10 -18 14 -7 27 -16 30 -20 11 -14 55 -40 70 -40 9 0 5 5 -9 13 -29 15 -36
43 -11 50 33 9 108 -15 113 -35 5 -16 9 -18 26 -9 10 6 35 12 54 13 19 2 33 6
30 11 -2 4 -9 7 -14 7 -11 0 -164 57 -191 71 -23 12 -37 11 -18 -1z"/>
<path d="M2265 1080 c-3 -5 -2 -10 4 -10 5 0 13 5 16 10 3 6 2 10 -4 10 -5 0
-13 -4 -16 -10z"/>
<path d="M3728 1083 c6 -2 18 -2 25 0 6 3 1 5 -13 5 -14 0 -19 -2 -12 -5z"/>
<path d="M3777 1083 c-3 -5 10 -15 29 -24 26 -13 34 -13 38 -3 3 7 -2 18 -10
24 -10 9 -14 9 -14 1 0 -8 -5 -9 -19 -1 -11 5 -22 7 -24 3z"/>
<path d="M810 975 c0 -14 2 -25 4 -25 17 0 36 15 36 29 0 14 -2 14 -10 1 -9
-13 -14 -7 -11 13 0 4 -3 7 -9 7 -5 0 -10 -11 -10 -25z"/>
<path d="M2413 927 c-13 -5 -23 -19 -23 -29 0 -11 -15 -49 -32 -86 -19 -40
-39 -104 -49 -158 l-16 -91 42 -89 c30 -65 52 -97 80 -118 70 -54 159 -71 202
-41 45 31 68 117 48 174 -6 20 -12 59 -13 86 -1 82 -71 211 -170 314 -41 43
-50 48 -69 38z"/>
<path d="M2948 834 c-52 -16 -3 -86 105 -150 68 -40 102 -42 148 -11 48 32 66
68 51 101 -19 43 -65 59 -182 62 -58 2 -112 1 -122 -2z"/>
<path d="M1814 772 c-9 -14 -6 -25 13 -52 l24 -35 -7 40 c-9 57 -17 68 -30 47z
m16 -22 c0 -5 -2 -10 -4 -10 -3 0 -8 5 -11 10 -3 6 -1 10 4 10 6 0 11 -4 11
-10z"/>
<path d="M1710 742 c0 -6 -11 -23 -25 -38 -14 -15 -23 -29 -20 -32 2 -3 14 6
26 19 16 19 19 20 15 6 -8 -26 15 -16 25 10 5 15 3 25 -7 33 -9 8 -14 9 -14 2z"/>
<path d="M1851 624 c0 -11 3 -14 6 -6 3 7 2 16 -1 19 -3 4 -6 -2 -5 -13z"/>
<path d="M1575 570 c3 -5 8 -10 11 -10 2 0 4 5 4 10 0 6 -5 10 -11 10 -5 0 -7
-4 -4 -10z"/>
</g>
</svg>
